<svg width="40" height="41" viewBox="0 0 40 41" fill="none" xmlns="http://www.w3.org/2000/svg">
<path d="M38.9255 17.3998L38.9228 17.3971L22.6043 1.07921C21.9087 0.38334 20.9839 0 20.0002 0C19.0166 0 18.0918 0.383035 17.3959 1.07891L1.08597 17.3886C1.08047 17.394 1.07498 17.3998 1.06949 17.4053C-0.358882 18.8419 -0.356441 21.1728 1.07651 22.6058C1.73117 23.2607 2.59583 23.6401 3.5203 23.6798C3.55784 23.6834 3.59568 23.6853 3.63383 23.6853H4.28423V35.6943C4.28423 38.0706 6.21772 40.0041 8.59467 40.0041H14.979C15.626 40.0041 16.151 39.4794 16.151 38.8321V29.4171C16.151 28.3327 17.033 27.4506 18.1174 27.4506H21.8831C22.9675 27.4506 23.8495 28.3327 23.8495 29.4171V38.8321C23.8495 39.4794 24.3742 40.0041 25.0215 40.0041H31.4058C33.7828 40.0041 35.7163 38.0706 35.7163 35.6943V23.6853H36.3194C37.3027 23.6853 38.2275 23.3022 38.9237 22.6064C40.3582 21.171 40.3588 18.8361 38.9255 17.3998Z" fill="white"/>
</svg>
