<svg width="46" height="47" viewBox="0 0 46 47" fill="none" xmlns="http://www.w3.org/2000/svg">
<path d="M42.1136 20.1541C46.6209 15.6376 46.6128 8.75395 42.1047 4.24584C37.571 -0.287886 30.6479 -0.247385 26.1871 4.24548C23.5846 6.86626 22.5357 10.3943 23.0048 13.7674L1.55157 36.5038C-0.421549 38.6099 -0.368552 41.858 1.67201 43.8986L2.45199 44.6785C4.49264 46.7194 7.74105 46.7718 9.8502 44.7958L32.5832 23.3458C36.2135 23.8505 39.7904 22.5447 42.1136 20.1541ZM40.2248 6.12581C43.369 9.27009 43.6602 13.8642 41.0987 17.2772L29.0735 5.2518C32.4889 2.68854 37.0824 2.98348 40.2248 6.12581ZM8.02908 42.8588C6.97614 43.8451 5.3522 43.8187 4.33187 42.7986L3.55189 42.0186C2.53166 40.9984 2.50516 39.3744 3.48844 38.3248L23.8485 16.7471C24.9752 19.309 27.0367 21.3733 29.6033 22.502L8.02908 42.8588ZM28.0674 18.2831C25.0354 15.251 24.7467 10.4989 27.2004 7.13869L39.2119 19.1501C35.8516 21.6039 31.0996 21.3152 28.0674 18.2831Z" fill="#A259FF"/>
</svg>
