<svg width="40" height="40" viewBox="0 0 40 40" fill="none" xmlns="http://www.w3.org/2000/svg">
<path d="M0.0727273 31.0395C0.193927 30.8262 0.387855 30.8128 0.654545 30.9995C6.71513 34.8657 13.3091 36.7988 20.4364 36.7988C25.1879 36.7988 29.8788 35.8256 34.5091 33.8791C34.6303 33.8258 34.806 33.7458 35.0364 33.6392C35.2667 33.5325 35.4303 33.4525 35.5273 33.3992C35.8909 33.2392 36.1757 33.3192 36.3818 33.6392C36.5879 33.9591 36.5212 34.2524 36.1818 34.5191C35.7455 34.8657 35.1879 35.2656 34.5091 35.7189C32.4242 37.0787 30.0969 38.1319 27.5273 38.8785C24.9576 39.6251 22.4485 39.9984 20 39.9984C16.2182 39.9984 12.6424 39.2718 9.27273 37.8187C5.90302 36.3655 2.88484 34.3191 0.218182 31.6794C0.0727273 31.5461 0 31.4127 0 31.2794C0 31.1994 0.0242182 31.1195 0.0727273 31.0395ZM11.0182 19.6408C11.0182 17.8011 11.4303 16.2279 12.2545 14.9214C13.0788 13.6149 14.206 12.6284 15.6364 11.9618C16.9455 11.3485 18.5576 10.9086 20.4727 10.6419C21.1273 10.5619 22.1939 10.4553 23.6727 10.322V9.64204C23.6727 7.93556 23.503 6.78906 23.1636 6.20245C22.6545 5.40255 21.8545 5.0026 20.7636 5.0026H20.4727C19.6727 5.08259 18.9818 5.36255 18.4 5.84249C17.8182 6.32244 17.4424 6.98904 17.2727 7.84225C17.1757 8.37551 16.9333 8.68215 16.5455 8.76214L12.3636 8.20221C11.9515 8.09554 11.7455 7.85557 11.7455 7.4823C11.7455 7.40231 11.7576 7.309 11.7818 7.20233C12.1939 4.8293 13.206 3.06951 14.8182 1.92297C16.4303 0.776424 18.3151 0.136501 20.4727 0.00319672H21.3818C24.1455 0.00319672 26.303 0.789782 27.8545 2.36291C28.0979 2.63076 28.3228 2.91819 28.5273 3.22281C28.7333 3.52945 28.8969 3.80274 29.0182 4.04271C29.1394 4.28268 29.2485 4.62932 29.3455 5.08259C29.4424 5.53585 29.5151 5.84917 29.5636 6.02247C29.6121 6.19577 29.6485 6.56909 29.6727 7.14234C29.6969 7.71559 29.7091 8.05555 29.7091 8.16222V17.8411C29.7091 18.5343 29.8 19.1676 29.9818 19.7408C30.1636 20.3141 30.3394 20.7274 30.5091 20.9807C30.6788 21.234 30.9576 21.6406 31.3455 22.2005C31.4909 22.4405 31.5636 22.6538 31.5636 22.8405C31.5636 23.0537 31.4667 23.2404 31.2727 23.4004C29.2606 25.3202 28.1697 26.36 28 26.52C27.7091 26.76 27.3576 26.7867 26.9455 26.6C26.606 26.28 26.3091 25.9734 26.0545 25.6801C25.8 25.3868 25.6182 25.1735 25.5091 25.0402C25.4 24.9069 25.2242 24.6469 24.9818 24.2603C24.7394 23.8736 24.5697 23.6137 24.4727 23.4804C23.1151 25.1069 21.7818 26.1201 20.4727 26.52C19.6485 26.7867 18.6303 26.92 17.4182 26.92C15.5515 26.92 14.0182 26.2867 12.8182 25.0202C11.6182 23.7537 11.0182 21.9606 11.0182 19.6408ZM17.2727 18.8409C17.2727 19.8808 17.5091 20.714 17.9818 21.3406C18.4545 21.9672 19.0909 22.2805 19.8909 22.2805C19.9636 22.2805 20.0667 22.2672 20.2 22.2405C20.3333 22.2138 20.4242 22.2005 20.4727 22.2005C21.4909 21.9072 22.2788 21.1873 22.8364 20.0408C23.103 19.5342 23.303 18.9809 23.4364 18.381C23.5697 17.7811 23.6424 17.2944 23.6545 16.9212C23.6667 16.5479 23.6727 15.9346 23.6727 15.0814V14.0815C22.2667 14.0815 21.2 14.1882 20.4727 14.4015C18.3394 15.0681 17.2727 16.5479 17.2727 18.8409ZM32.5455 31.7194C32.5939 31.6127 32.6667 31.5061 32.7636 31.3994C33.3697 30.9462 33.9515 30.6395 34.5091 30.4795C35.4303 30.2129 36.3273 30.0663 37.2 30.0396C37.4424 30.0129 37.6727 30.0263 37.8909 30.0796C38.9818 30.1862 39.6364 30.3862 39.8545 30.6795C39.9515 30.8395 40 31.0795 40 31.3994V31.6794C40 32.6126 39.7697 33.7125 39.3091 34.979C38.8485 36.2455 38.206 37.2654 37.3818 38.0386C37.2606 38.1453 37.1515 38.1986 37.0545 38.1986C37.006 38.1986 36.9576 38.1853 36.9091 38.1586C36.7636 38.0786 36.7273 37.932 36.8 37.7187C37.6969 35.3989 38.1455 33.7858 38.1455 32.8792C38.1455 32.586 38.0969 32.3726 38 32.2393C37.7576 31.9194 37.0788 31.7594 35.9636 31.7594C35.5515 31.7594 35.0667 31.7861 34.5091 31.8394C33.903 31.9194 33.3455 31.9994 32.8364 32.0793C32.6909 32.0793 32.5939 32.0527 32.5455 31.9994C32.4969 31.946 32.4848 31.8927 32.5091 31.8394C32.5091 31.8127 32.5212 31.7727 32.5455 31.7194Z" fill="white"/>
</svg>
